<svg xmlns="http://www.w3.org/2000/svg" viewBox="0 0 138 23" width="138" height="23">
	<style>
		tspan { white-space:pre }
		.shp0 { fill: #ffffff } 
	</style>
	<g id="footer">
		<path id="ТЕХНОМАРТ" class="shp0" d="M0.84 3.06L5.64 3.06L5.64 21.96L8.34 21.96L8.34 3.06L13.14 3.06L13.14 0.96L0.84 0.96L0.84 3.06ZM18.24 12.06L24.84 12.06L24.84 9.96L18.24 9.96L18.24 3.06L25.74 3.06L25.74 0.96L15.54 0.96L15.54 21.96L25.74 21.96L25.74 19.86L18.24 19.86L18.24 12.06ZM33.84 9.36L30.54 0.96L27.84 0.96L31.89 11.16L27.39 21.96L30.09 21.96L33.84 12.96L37.59 21.96L40.29 21.96L35.79 11.16L39.84 0.96L37.14 0.96L33.84 9.36ZM51.84 0.96L51.84 10.26L45.54 10.26L45.54 0.96L42.84 0.96L42.84 21.96L45.54 21.96L45.54 12.36L51.84 12.36L51.84 21.96L54.54 21.96L54.54 0.96L51.84 0.96ZM61.87 1.17C61.08 1.51 60.41 2.09 59.85 2.91C59.29 3.73 58.86 4.83 58.57 6.22C58.28 7.61 58.14 9.36 58.14 11.46C58.14 13.56 58.28 15.3 58.57 16.69C58.86 18.08 59.29 19.19 59.85 20.01C60.41 20.83 61.08 21.41 61.87 21.75C62.66 22.09 63.57 22.26 64.59 22.26C65.61 22.26 66.51 22.09 67.3 21.75C68.09 21.41 68.77 20.83 69.33 20.01C69.89 19.19 70.31 18.08 70.6 16.69C70.89 15.3 71.04 13.56 71.04 11.46C71.04 9.36 70.89 7.61 70.6 6.22C70.31 4.83 69.89 3.73 69.33 2.91C68.77 2.09 68.09 1.51 67.3 1.17C66.51 0.83 65.61 0.66 64.59 0.66C63.57 0.66 62.66 0.83 61.87 1.17ZM63.18 20.07C62.72 19.81 62.32 19.34 61.98 18.66C61.64 17.98 61.36 17.06 61.15 15.9C60.94 14.74 60.84 13.26 60.84 11.46C60.84 9.66 60.94 8.18 61.15 7.02C61.36 5.86 61.64 4.94 61.98 4.26C62.32 3.58 62.72 3.11 63.18 2.85C63.64 2.59 64.11 2.46 64.59 2.46C65.07 2.46 65.54 2.59 66 2.85C66.46 3.11 66.86 3.58 67.2 4.26C67.54 4.94 67.81 5.86 68.02 7.02C68.23 8.18 68.34 9.66 68.34 11.46C68.34 13.26 68.23 14.74 68.02 15.9C67.81 17.06 67.54 17.98 67.2 18.66C66.86 19.34 66.46 19.81 66 20.07C65.54 20.33 65.07 20.46 64.59 20.46C64.11 20.46 63.64 20.33 63.18 20.07ZM84.99 19.26L89.34 6.36L89.49 6.36L90.39 21.96L93.09 21.96L91.89 0.96L88.59 0.96L83.7 15.36L83.58 15.36L78.69 0.96L75.39 0.96L74.19 21.96L76.89 21.96L77.79 6.36L77.94 6.36L82.29 19.26L84.99 19.26ZM105.39 16.56L106.74 21.96L109.44 21.96L104.34 0.96L100.44 0.96L95.34 21.96L98.04 21.96L99.39 16.56L105.39 16.56ZM104.94 14.46L99.84 14.46L102.33 3.96L102.45 3.96L104.94 14.46ZM114.84 13.71L114.84 2.61L116.94 2.61C117.62 2.61 118.2 2.69 118.69 2.86C119.18 3.03 119.59 3.33 119.91 3.75C120.23 4.17 120.46 4.74 120.61 5.46C120.76 6.18 120.84 7.08 120.84 8.16C120.84 9.24 120.76 10.14 120.61 10.86C120.46 11.58 120.23 12.15 119.91 12.57C119.59 12.99 119.18 13.28 118.69 13.45C118.2 13.62 117.62 13.71 116.94 13.71L114.84 13.71ZM114.84 15.51C115.22 15.59 115.7 15.66 116.28 15.72C116.86 15.78 117.38 15.81 117.84 15.81C118.82 15.81 119.66 15.68 120.37 15.43C121.08 15.18 121.67 14.76 122.14 14.17C122.61 13.58 122.96 12.8 123.19 11.82C123.42 10.84 123.54 9.62 123.54 8.16C123.54 6.74 123.42 5.55 123.18 4.59C122.94 3.63 122.56 2.86 122.04 2.28C121.52 1.7 120.84 1.28 120 1.03C119.16 0.78 118.14 0.66 116.94 0.66C116.04 0.66 115.2 0.7 114.43 0.79C113.66 0.88 112.9 1.04 112.14 1.26L112.14 21.96L114.84 21.96L114.84 15.51ZM125.04 3.06L129.84 3.06L129.84 21.96L132.54 21.96L132.54 3.06L137.34 3.06L137.34 0.96L125.04 0.96L125.04 3.06Z" />
	</g>
</svg>